<svg width="400" height="600" viewBox="0 0 400 600" fill="none" xmlns="http://www.w3.org/2000/svg">
  <rect width="400" height="600" rx="40" fill="#F8FAFC" stroke="#E2E8F0" stroke-width="2"/>
  <rect x="30" y="70" width="340" height="100" rx="10" fill="#EEF2FF"/>
  <rect x="50" y="90" width="200" height="15" rx="4" fill="#6366F1"/>
  <rect x="50" y="115" width="280" height="10" rx="4" fill="#A5B4FC"/>
  <rect x="50" y="135" width="280" height="10" rx="4" fill="#A5B4FC"/>
  <rect x="50" y="155" width="200" height="10" rx="4" fill="#A5B4FC"/>
  <rect x="30" y="190" width="160" height="160" rx="10" fill="#EEF2FF"/>
  <rect x="210" y="190" width="160" height="160" rx="10" fill="#EEF2FF"/>
  <rect x="30" y="370" width="160" height="160" rx="10" fill="#EEF2FF"/>
  <rect x="210" y="370" width="160" height="160" rx="10" fill="#EEF2FF"/>
  <circle cx="110" cy="270" r="40" fill="#6366F1"/>
  <circle cx="290" cy="270" r="40" fill="#818CF8"/>
  <circle cx="110" cy="450" r="40" fill="#818CF8"/>
  <circle cx="290" cy="450" r="40" fill="#6366F1"/>
</svg>
