<svg width="400" height="600" viewBox="0 0 400 600" fill="none" xmlns="http://www.w3.org/2000/svg">
  <rect width="400" height="600" rx="40" fill="#F8FAFC" stroke="#E2E8F0" stroke-width="2"/>
  <rect x="30" y="70" width="340" height="60" rx="10" fill="#EEF2FF"/>
  <rect x="50" y="90" width="180" height="20" rx="4" fill="#6366F1"/>
  <rect x="30" y="150" width="340" height="60" rx="10" fill="#EEF2FF"/>
  <rect x="50" y="170" width="180" height="20" rx="4" fill="#6366F1"/>
  <rect x="30" y="230" width="340" height="60" rx="10" fill="#EEF2FF"/>
  <rect x="50" y="250" width="180" height="20" rx="4" fill="#6366F1"/>
  <rect x="30" y="310" width="340" height="60" rx="10" fill="#EEF2FF"/>
  <rect x="50" y="330" width="180" height="20" rx="4" fill="#6366F1"/>
  <rect x="30" y="390" width="340" height="60" rx="10" fill="#EEF2FF"/>
  <rect x="50" y="410" width="180" height="20" rx="4" fill="#6366F1"/>
  <circle cx="200" cy="520" r="40" fill="#6366F1"/>
  <rect x="180" y="510" width="40" height="20" rx="4" fill="white"/>
</svg>
