<svg width="400" height="600" viewBox="0 0 400 600" fill="none" xmlns="http://www.w3.org/2000/svg">
  <rect width="400" height="600" rx="40" fill="#F8FAFC" stroke="#E2E8F0" stroke-width="2"/>
  <rect x="30" y="60" width="340" height="80" rx="10" fill="#EEF2FF"/>
  <circle cx="70" cy="100" r="25" fill="#6366F1"/>
  <rect x="110" y="85" width="200" height="12" rx="4" fill="#6366F1"/>
  <rect x="110" y="105" width="150" height="10" rx="4" fill="#A5B4FC"/>
  <rect x="30" y="160" width="340" height="80" rx="10" fill="#EEF2FF"/>
  <circle cx="70" cy="200" r="25" fill="#818CF8"/>
  <rect x="110" y="185" width="200" height="12" rx="4" fill="#6366F1"/>
  <rect x="110" y="205" width="150" height="10" rx="4" fill="#A5B4FC"/>
  <rect x="30" y="260" width="340" height="80" rx="10" fill="#EEF2FF"/>
  <circle cx="70" cy="300" r="25" fill="#6366F1"/>
  <rect x="110" y="285" width="200" height="12" rx="4" fill="#6366F1"/>
  <rect x="110" y="305" width="150" height="10" rx="4" fill="#A5B4FC"/>
  <rect x="30" y="360" width="340" height="80" rx="10" fill="#EEF2FF"/>
  <circle cx="70" cy="400" r="25" fill="#818CF8"/>
  <rect x="110" y="385" width="200" height="12" rx="4" fill="#6366F1"/>
  <rect x="110" y="405" width="150" height="10" rx="4" fill="#A5B4FC"/>
  <rect x="100" y="480" width="200" height="50" rx="25" fill="#6366F1"/>
  <rect x="150" y="495" width="100" height="20" rx="4" fill="white"/>
</svg>
